<mxfile host="app.diagrams.net" modified="2023-11-19T20:00:04.934Z" agent="Mozilla/5.0 (Macintosh; Intel Mac OS X 10_15_7) AppleWebKit/605.1.15 (KHTML, like Gecko) Version/16.0 Safari/605.1.15" etag="3iKQvabNGfc7lSezbWJ1" version="22.1.3" type="github">
  <diagram name="PÃ¡gina-1" id="XvALa5Gz_n9wog4R_w9N">
    <mxGraphModel dx="1122" dy="761" grid="1" gridSize="10" guides="1" tooltips="1" connect="1" arrows="1" fold="1" page="1" pageScale="1" pageWidth="850" pageHeight="1100" math="0" shadow="0">
      <root>
        <mxCell id="0" />
        <mxCell id="1" parent="0" />
        <mxCell id="KPzzWik7wnVX-bGjjUEz-5" value="Empresa" style="swimlane;fontStyle=1;align=center;verticalAlign=top;childLayout=stackLayout;horizontal=1;startSize=26;horizontalStack=0;resizeParent=1;resizeParentMax=0;resizeLast=0;collapsible=1;marginBottom=0;whiteSpace=wrap;html=1;" parent="1" vertex="1">
          <mxGeometry x="270" y="30" width="370" height="130" as="geometry" />
        </mxCell>
        <mxCell id="KPzzWik7wnVX-bGjjUEz-6" value="-departamentos: vector&amp;lt;Departamento&amp;gt;&lt;br&gt;    -trabajadores: vector&amp;lt;Trabajador&amp;gt;" style="text;strokeColor=none;fillColor=none;align=left;verticalAlign=top;spacingLeft=4;spacingRight=4;overflow=hidden;rotatable=0;points=[[0,0.5],[1,0.5]];portConstraint=eastwest;whiteSpace=wrap;html=1;" parent="KPzzWik7wnVX-bGjjUEz-5" vertex="1">
          <mxGeometry y="26" width="370" height="54" as="geometry" />
        </mxCell>
        <mxCell id="KPzzWik7wnVX-bGjjUEz-7" value="" style="line;strokeWidth=1;fillColor=none;align=left;verticalAlign=middle;spacingTop=-1;spacingLeft=3;spacingRight=3;rotatable=0;labelPosition=right;points=[];portConstraint=eastwest;strokeColor=inherit;" parent="KPzzWik7wnVX-bGjjUEz-5" vertex="1">
          <mxGeometry y="80" width="370" height="8" as="geometry" />
        </mxCell>
        <mxCell id="KPzzWik7wnVX-bGjjUEz-8" value="+agregarDepartamento(departamento: Departamento): void" style="text;strokeColor=none;fillColor=none;align=left;verticalAlign=top;spacingLeft=4;spacingRight=4;overflow=hidden;rotatable=0;points=[[0,0.5],[1,0.5]];portConstraint=eastwest;whiteSpace=wrap;html=1;" parent="KPzzWik7wnVX-bGjjUEz-5" vertex="1">
          <mxGeometry y="88" width="370" height="42" as="geometry" />
        </mxCell>
        <mxCell id="KPzzWik7wnVX-bGjjUEz-9" value="Departamento" style="swimlane;fontStyle=1;align=center;verticalAlign=top;childLayout=stackLayout;horizontal=1;startSize=26;horizontalStack=0;resizeParent=1;resizeParentMax=0;resizeLast=0;collapsible=1;marginBottom=0;whiteSpace=wrap;html=1;" parent="1" vertex="1">
          <mxGeometry x="490" y="236" width="300" height="140" as="geometry" />
        </mxCell>
        <mxCell id="KPzzWik7wnVX-bGjjUEz-10" value="-nombre: string&lt;br&gt;    -proyectos: vector&amp;lt;Proyecto&amp;gt;&lt;br&gt;" style="text;strokeColor=none;fillColor=none;align=left;verticalAlign=top;spacingLeft=4;spacingRight=4;overflow=hidden;rotatable=0;points=[[0,0.5],[1,0.5]];portConstraint=eastwest;whiteSpace=wrap;html=1;" parent="KPzzWik7wnVX-bGjjUEz-9" vertex="1">
          <mxGeometry y="26" width="300" height="44" as="geometry" />
        </mxCell>
        <mxCell id="KPzzWik7wnVX-bGjjUEz-11" value="" style="line;strokeWidth=1;fillColor=none;align=left;verticalAlign=middle;spacingTop=-1;spacingLeft=3;spacingRight=3;rotatable=0;labelPosition=right;points=[];portConstraint=eastwest;strokeColor=inherit;" parent="KPzzWik7wnVX-bGjjUEz-9" vertex="1">
          <mxGeometry y="70" width="300" height="30" as="geometry" />
        </mxCell>
        <mxCell id="rA2MAlb1nhseHWj6w3qU-9" style="edgeStyle=none;rounded=0;orthogonalLoop=1;jettySize=auto;html=1;entryX=0;entryY=0.55;entryDx=0;entryDy=0;entryPerimeter=0;" edge="1" parent="KPzzWik7wnVX-bGjjUEz-9" source="rA2MAlb1nhseHWj6w3qU-7" target="rA2MAlb1nhseHWj6w3qU-7">
          <mxGeometry relative="1" as="geometry" />
        </mxCell>
        <mxCell id="rA2MAlb1nhseHWj6w3qU-7" value="&lt;div style=&quot;&quot;&gt;+Departamento(nombre: string)&lt;/div&gt;+agregarProyecto(proyecto: Proyecto): void" style="text;html=1;align=left;verticalAlign=middle;resizable=0;points=[];autosize=1;strokeColor=none;fillColor=none;" vertex="1" parent="KPzzWik7wnVX-bGjjUEz-9">
          <mxGeometry y="100" width="300" height="40" as="geometry" />
        </mxCell>
        <mxCell id="KPzzWik7wnVX-bGjjUEz-13" value="Proyecto" style="swimlane;fontStyle=1;align=center;verticalAlign=top;childLayout=stackLayout;horizontal=1;startSize=26;horizontalStack=0;resizeParent=1;resizeParentMax=0;resizeLast=0;collapsible=1;marginBottom=0;whiteSpace=wrap;html=1;" parent="1" vertex="1">
          <mxGeometry x="140" y="236" width="290" height="130" as="geometry" />
        </mxCell>
        <mxCell id="KPzzWik7wnVX-bGjjUEz-14" value="-nombre: string&lt;br&gt;    -trabajadores: vector&amp;lt;Trabajador&amp;gt;&lt;br&gt;" style="text;strokeColor=none;fillColor=none;align=left;verticalAlign=top;spacingLeft=4;spacingRight=4;overflow=hidden;rotatable=0;points=[[0,0.5],[1,0.5]];portConstraint=eastwest;whiteSpace=wrap;html=1;" parent="KPzzWik7wnVX-bGjjUEz-13" vertex="1">
          <mxGeometry y="26" width="290" height="44" as="geometry" />
        </mxCell>
        <mxCell id="KPzzWik7wnVX-bGjjUEz-15" value="" style="line;strokeWidth=1;fillColor=none;align=left;verticalAlign=middle;spacingTop=-1;spacingLeft=3;spacingRight=3;rotatable=0;labelPosition=right;points=[];portConstraint=eastwest;strokeColor=inherit;" parent="KPzzWik7wnVX-bGjjUEz-13" vertex="1">
          <mxGeometry y="70" width="290" height="8" as="geometry" />
        </mxCell>
        <mxCell id="KPzzWik7wnVX-bGjjUEz-16" value="+Proyecto(nombre: string)&lt;br/&gt;    +agregarTrabajador(trabajador: Trabajador): void" style="text;strokeColor=none;fillColor=none;align=left;verticalAlign=top;spacingLeft=4;spacingRight=4;overflow=hidden;rotatable=0;points=[[0,0.5],[1,0.5]];portConstraint=eastwest;whiteSpace=wrap;html=1;" parent="KPzzWik7wnVX-bGjjUEz-13" vertex="1">
          <mxGeometry y="78" width="290" height="52" as="geometry" />
        </mxCell>
        <mxCell id="KPzzWik7wnVX-bGjjUEz-37" style="edgeStyle=orthogonalEdgeStyle;rounded=0;orthogonalLoop=1;jettySize=auto;html=1;exitX=0.5;exitY=0;exitDx=0;exitDy=0;endArrow=none;endFill=0;entryX=0.579;entryY=1.05;entryDx=0;entryDy=0;entryPerimeter=0;startArrow=diamond;startFill=1;" parent="1" source="KPzzWik7wnVX-bGjjUEz-19" target="KPzzWik7wnVX-bGjjUEz-16" edge="1">
          <mxGeometry relative="1" as="geometry">
            <mxPoint x="230" y="370" as="targetPoint" />
            <Array as="points">
              <mxPoint x="170" y="410" />
              <mxPoint x="308" y="410" />
            </Array>
          </mxGeometry>
        </mxCell>
        <mxCell id="KPzzWik7wnVX-bGjjUEz-19" value="Trabajador" style="swimlane;fontStyle=1;align=center;verticalAlign=top;childLayout=stackLayout;horizontal=1;startSize=26;horizontalStack=0;resizeParent=1;resizeParentMax=0;resizeLast=0;collapsible=1;marginBottom=0;whiteSpace=wrap;html=1;" parent="1" vertex="1">
          <mxGeometry x="40" y="430" width="260" height="120" as="geometry" />
        </mxCell>
        <mxCell id="KPzzWik7wnVX-bGjjUEz-20" value="#nombre: string&amp;nbsp;&lt;br&gt;#id: string&lt;br&gt;#horas: Int" style="text;strokeColor=none;fillColor=none;align=left;verticalAlign=top;spacingLeft=4;spacingRight=4;overflow=hidden;rotatable=0;points=[[0,0.5],[1,0.5]];portConstraint=eastwest;whiteSpace=wrap;html=1;" parent="KPzzWik7wnVX-bGjjUEz-19" vertex="1">
          <mxGeometry y="26" width="260" height="54" as="geometry" />
        </mxCell>
        <mxCell id="KPzzWik7wnVX-bGjjUEz-21" value="" style="line;strokeWidth=1;fillColor=none;align=left;verticalAlign=middle;spacingTop=-1;spacingLeft=3;spacingRight=3;rotatable=0;labelPosition=right;points=[];portConstraint=eastwest;strokeColor=inherit;" parent="KPzzWik7wnVX-bGjjUEz-19" vertex="1">
          <mxGeometry y="80" width="260" height="8" as="geometry" />
        </mxCell>
        <mxCell id="KPzzWik7wnVX-bGjjUEz-22" value="+Trabajador(nombre: string, id: int, horas: int)" style="text;strokeColor=none;fillColor=none;align=left;verticalAlign=top;spacingLeft=4;spacingRight=4;overflow=hidden;rotatable=0;points=[[0,0.5],[1,0.5]];portConstraint=eastwest;whiteSpace=wrap;html=1;" parent="KPzzWik7wnVX-bGjjUEz-19" vertex="1">
          <mxGeometry y="88" width="260" height="32" as="geometry" />
        </mxCell>
        <mxCell id="KPzzWik7wnVX-bGjjUEz-38" style="edgeStyle=orthogonalEdgeStyle;rounded=0;orthogonalLoop=1;jettySize=auto;html=1;exitX=1;exitY=0.5;exitDx=0;exitDy=0;entryX=0;entryY=0.5;entryDx=0;entryDy=0;endArrow=diamond;endFill=1;" parent="1" source="KPzzWik7wnVX-bGjjUEz-14" target="KPzzWik7wnVX-bGjjUEz-10" edge="1">
          <mxGeometry relative="1" as="geometry">
            <Array as="points">
              <mxPoint x="440" y="299" />
              <mxPoint x="440" y="284" />
            </Array>
          </mxGeometry>
        </mxCell>
        <mxCell id="KPzzWik7wnVX-bGjjUEz-41" style="edgeStyle=orthogonalEdgeStyle;rounded=0;orthogonalLoop=1;jettySize=auto;html=1;entryX=0.5;entryY=1.024;entryDx=0;entryDy=0;endArrow=none;endFill=0;startArrow=diamond;startFill=0;entryPerimeter=0;" parent="1" target="KPzzWik7wnVX-bGjjUEz-8" edge="1">
          <mxGeometry relative="1" as="geometry">
            <mxPoint x="640" y="236" as="sourcePoint" />
          </mxGeometry>
        </mxCell>
        <mxCell id="rA2MAlb1nhseHWj6w3qU-5" style="edgeStyle=none;rounded=0;orthogonalLoop=1;jettySize=auto;html=1;exitX=0;exitY=0.5;exitDx=0;exitDy=0;entryX=0.119;entryY=-0.015;entryDx=0;entryDy=0;endArrow=diamond;endFill=0;entryPerimeter=0;" edge="1" parent="1" source="KPzzWik7wnVX-bGjjUEz-6" target="KPzzWik7wnVX-bGjjUEz-19">
          <mxGeometry relative="1" as="geometry">
            <mxPoint x="190" y="-10" as="sourcePoint" />
            <mxPoint x="-40" y="390" as="targetPoint" />
            <Array as="points">
              <mxPoint x="71" y="83" />
            </Array>
          </mxGeometry>
        </mxCell>
        <mxCell id="rA2MAlb1nhseHWj6w3qU-13" value="EmpleadoBase" style="swimlane;fontStyle=1;align=center;verticalAlign=top;childLayout=stackLayout;horizontal=1;startSize=26;horizontalStack=0;resizeParent=1;resizeParentMax=0;resizeLast=0;collapsible=1;marginBottom=0;whiteSpace=wrap;html=1;" vertex="1" parent="1">
          <mxGeometry x="210" y="610" width="160" height="86" as="geometry" />
        </mxCell>
        <mxCell id="rA2MAlb1nhseHWj6w3qU-14" value="-" style="text;strokeColor=none;fillColor=none;align=left;verticalAlign=top;spacingLeft=4;spacingRight=4;overflow=hidden;rotatable=0;points=[[0,0.5],[1,0.5]];portConstraint=eastwest;whiteSpace=wrap;html=1;" vertex="1" parent="rA2MAlb1nhseHWj6w3qU-13">
          <mxGeometry y="26" width="160" height="26" as="geometry" />
        </mxCell>
        <mxCell id="rA2MAlb1nhseHWj6w3qU-15" value="" style="line;strokeWidth=1;fillColor=none;align=left;verticalAlign=middle;spacingTop=-1;spacingLeft=3;spacingRight=3;rotatable=0;labelPosition=right;points=[];portConstraint=eastwest;strokeColor=inherit;" vertex="1" parent="rA2MAlb1nhseHWj6w3qU-13">
          <mxGeometry y="52" width="160" height="8" as="geometry" />
        </mxCell>
        <mxCell id="rA2MAlb1nhseHWj6w3qU-16" value="+ method(type): type" style="text;strokeColor=none;fillColor=none;align=left;verticalAlign=top;spacingLeft=4;spacingRight=4;overflow=hidden;rotatable=0;points=[[0,0.5],[1,0.5]];portConstraint=eastwest;whiteSpace=wrap;html=1;" vertex="1" parent="rA2MAlb1nhseHWj6w3qU-13">
          <mxGeometry y="60" width="160" height="26" as="geometry" />
        </mxCell>
        <mxCell id="rA2MAlb1nhseHWj6w3qU-17" value="Gerente" style="swimlane;fontStyle=1;align=center;verticalAlign=top;childLayout=stackLayout;horizontal=1;startSize=26;horizontalStack=0;resizeParent=1;resizeParentMax=0;resizeLast=0;collapsible=1;marginBottom=0;whiteSpace=wrap;html=1;" vertex="1" parent="1">
          <mxGeometry x="400" y="507" width="160" height="86" as="geometry" />
        </mxCell>
        <mxCell id="rA2MAlb1nhseHWj6w3qU-18" value="+ field: type" style="text;strokeColor=none;fillColor=none;align=left;verticalAlign=top;spacingLeft=4;spacingRight=4;overflow=hidden;rotatable=0;points=[[0,0.5],[1,0.5]];portConstraint=eastwest;whiteSpace=wrap;html=1;" vertex="1" parent="rA2MAlb1nhseHWj6w3qU-17">
          <mxGeometry y="26" width="160" height="26" as="geometry" />
        </mxCell>
        <mxCell id="rA2MAlb1nhseHWj6w3qU-19" value="" style="line;strokeWidth=1;fillColor=none;align=left;verticalAlign=middle;spacingTop=-1;spacingLeft=3;spacingRight=3;rotatable=0;labelPosition=right;points=[];portConstraint=eastwest;strokeColor=inherit;" vertex="1" parent="rA2MAlb1nhseHWj6w3qU-17">
          <mxGeometry y="52" width="160" height="8" as="geometry" />
        </mxCell>
        <mxCell id="rA2MAlb1nhseHWj6w3qU-20" value="+ method(type): type" style="text;strokeColor=none;fillColor=none;align=left;verticalAlign=top;spacingLeft=4;spacingRight=4;overflow=hidden;rotatable=0;points=[[0,0.5],[1,0.5]];portConstraint=eastwest;whiteSpace=wrap;html=1;" vertex="1" parent="rA2MAlb1nhseHWj6w3qU-17">
          <mxGeometry y="60" width="160" height="26" as="geometry" />
        </mxCell>
        <mxCell id="rA2MAlb1nhseHWj6w3qU-39" style="edgeStyle=none;rounded=0;orthogonalLoop=1;jettySize=auto;html=1;exitX=0;exitY=0.5;exitDx=0;exitDy=0;" edge="1" parent="1" source="rA2MAlb1nhseHWj6w3qU-22" target="KPzzWik7wnVX-bGjjUEz-20">
          <mxGeometry relative="1" as="geometry" />
        </mxCell>
        <mxCell id="rA2MAlb1nhseHWj6w3qU-21" value="Desarrollador" style="swimlane;fontStyle=1;align=center;verticalAlign=top;childLayout=stackLayout;horizontal=1;startSize=26;horizontalStack=0;resizeParent=1;resizeParentMax=0;resizeLast=0;collapsible=1;marginBottom=0;whiteSpace=wrap;html=1;" vertex="1" parent="1">
          <mxGeometry x="400" y="400" width="160" height="86" as="geometry" />
        </mxCell>
        <mxCell id="rA2MAlb1nhseHWj6w3qU-22" value="+ field: type" style="text;strokeColor=none;fillColor=none;align=left;verticalAlign=top;spacingLeft=4;spacingRight=4;overflow=hidden;rotatable=0;points=[[0,0.5],[1,0.5]];portConstraint=eastwest;whiteSpace=wrap;html=1;" vertex="1" parent="rA2MAlb1nhseHWj6w3qU-21">
          <mxGeometry y="26" width="160" height="26" as="geometry" />
        </mxCell>
        <mxCell id="rA2MAlb1nhseHWj6w3qU-23" value="" style="line;strokeWidth=1;fillColor=none;align=left;verticalAlign=middle;spacingTop=-1;spacingLeft=3;spacingRight=3;rotatable=0;labelPosition=right;points=[];portConstraint=eastwest;strokeColor=inherit;" vertex="1" parent="rA2MAlb1nhseHWj6w3qU-21">
          <mxGeometry y="52" width="160" height="8" as="geometry" />
        </mxCell>
        <mxCell id="rA2MAlb1nhseHWj6w3qU-24" value="+ method(type): type" style="text;strokeColor=none;fillColor=none;align=left;verticalAlign=top;spacingLeft=4;spacingRight=4;overflow=hidden;rotatable=0;points=[[0,0.5],[1,0.5]];portConstraint=eastwest;whiteSpace=wrap;html=1;" vertex="1" parent="rA2MAlb1nhseHWj6w3qU-21">
          <mxGeometry y="60" width="160" height="26" as="geometry" />
        </mxCell>
        <mxCell id="rA2MAlb1nhseHWj6w3qU-37" style="edgeStyle=none;rounded=0;orthogonalLoop=1;jettySize=auto;html=1;exitX=0.5;exitY=0;exitDx=0;exitDy=0;entryX=0.961;entryY=1.061;entryDx=0;entryDy=0;entryPerimeter=0;endArrow=block;endFill=0;" edge="1" parent="1" source="rA2MAlb1nhseHWj6w3qU-13" target="KPzzWik7wnVX-bGjjUEz-22">
          <mxGeometry relative="1" as="geometry" />
        </mxCell>
        <mxCell id="rA2MAlb1nhseHWj6w3qU-38" style="edgeStyle=none;rounded=0;orthogonalLoop=1;jettySize=auto;html=1;exitX=0;exitY=0.5;exitDx=0;exitDy=0;entryX=1;entryY=0.5;entryDx=0;entryDy=0;" edge="1" parent="1" source="rA2MAlb1nhseHWj6w3qU-18" target="KPzzWik7wnVX-bGjjUEz-20">
          <mxGeometry relative="1" as="geometry" />
        </mxCell>
      </root>
    </mxGraphModel>
  </diagram>
</mxfile>
